<svg xmlns="http://www.w3.org/2000/svg" width="40" height="40" viewBox="0 0 40 40" fill="none">
<path opacity="0.5" fill-rule="evenodd" clip-rule="evenodd" d="M36.6667 20C36.6667 29.2047 29.2048 36.6666 20 36.6666C10.7953 36.6666 3.33337 29.2047 3.33337 20C3.33337 10.7952 10.7953 3.33331 20 3.33331C29.2048 3.33331 36.6667 10.7952 36.6667 20Z" fill="white"/>
<path d="M21.25 10C21.25 9.30964 20.6904 8.75 20 8.75C19.3096 8.75 18.75 9.30964 18.75 10V10.5279C16.0326 11.0144 13.75 13.056 13.75 15.8333C13.75 19.0286 16.7713 21.25 20 21.25C22.2941 21.25 23.75 22.7596 23.75 24.1667C23.75 25.5738 22.2941 27.0833 20 27.0833C17.7059 27.0833 16.25 25.5738 16.25 24.1667C16.25 23.4763 15.6904 22.9167 15 22.9167C14.3096 22.9167 13.75 23.4763 13.75 24.1667C13.75 26.944 16.0326 28.9856 18.75 29.4721V30C18.75 30.6904 19.3096 31.25 20 31.25C20.6904 31.25 21.25 30.6904 21.25 30V29.4721C23.9674 28.9856 26.25 26.944 26.25 24.1667C26.25 20.9714 23.2287 18.75 20 18.75C17.7059 18.75 16.25 17.2404 16.25 15.8333C16.25 14.4262 17.7059 12.9167 20 12.9167C22.2941 12.9167 23.75 14.4262 23.75 15.8333C23.75 16.5237 24.3096 17.0833 25 17.0833C25.6904 17.0833 26.25 16.5237 26.25 15.8333C26.25 13.056 23.9674 11.0144 21.25 10.5279V10Z" fill="white"/>
</svg>