<svg xmlns="http://www.w3.org/2000/svg" width="25" height="24" viewBox="0 0 25 24" fill="none">
  <path d="M12.5 5.854V20.9999" stroke="white" stroke-width="1.5"/>
  <path d="M5.5 9L9.5 10" stroke="white" stroke-width="1.5" stroke-linecap="round"/>
  <path d="M5.5 13L9.5 14" stroke="white" stroke-width="1.5" stroke-linecap="round"/>
  <path d="M19.5 13L15.5 14" stroke="white" stroke-width="1.5" stroke-linecap="round"/>
  <path d="M19.5 5.5V9.51029C19.5 9.78587 19.5 9.92366 19.4051 9.97935C19.3103 10.035 19.1806 9.97343 18.9211 9.85018L17.6789 9.26011C17.5911 9.21842 17.5472 9.19757 17.5 9.19757C17.4528 9.19757 17.4089 9.21842 17.3211 9.26011L16.0789 9.85018C15.8194 9.97343 15.6897 10.035 15.5949 9.97935C15.5 9.92366 15.5 9.78587 15.5 9.51029V6.95002" stroke="white" stroke-width="1.5" stroke-linecap="round"/>
  <path d="M20.582 3.01775L20.6081 3.76729L20.582 3.01775ZM17 3.48744L16.7849 2.76895V2.76895L17 3.48744ZM14.1738 4.80275L13.7982 4.15363L13.7982 4.15363L14.1738 4.80275ZM4.4824 3.07489L4.43639 3.82348L4.4824 3.07489ZM7.5 3.48744L7.69136 2.76227V2.76227L7.5 3.48744ZM10.7823 4.87546L10.4317 5.53847L10.7823 4.87546ZM14.1276 20.0692L14.4804 20.7311L14.1276 20.0692ZM17.5 18.6334L17.3086 17.9082H17.3086L17.5 18.6334ZM20.4851 18.2228L20.532 18.9714L20.4851 18.2228ZM10.8724 20.0692L10.5196 20.7311H10.5196L10.8724 20.0692ZM7.5 18.6334L7.69136 17.9082H7.69136L7.5 18.6334ZM4.51486 18.2228L4.46804 18.9714H4.46804L4.51486 18.2228ZM23.25 10.5384C23.25 10.1242 22.9142 9.78839 22.5 9.78839C22.0858 9.78839 21.75 10.1242 21.75 10.5384H23.25ZM21.75 7C21.75 7.41421 22.0858 7.75 22.5 7.75C22.9142 7.75 23.25 7.41421 23.25 7H21.75ZM1.75 10.5707C1.75 10.9849 2.08579 11.3207 2.5 11.3207C2.91421 11.3207 3.25 10.9849 3.25 10.5707H1.75ZM3.25 14C3.25 13.5858 2.91421 13.25 2.5 13.25C2.08579 13.25 1.75 13.5858 1.75 14H3.25ZM20.5559 2.2682C19.4175 2.30785 17.9296 2.42627 16.7849 2.76895L17.2151 4.20594C18.1643 3.92179 19.4892 3.80627 20.6081 3.76729L20.5559 2.2682ZM16.7849 2.76895C15.7899 3.06684 14.6706 3.64868 13.7982 4.15363L14.5495 5.45188C15.4 4.95969 16.3949 4.45149 17.2151 4.20594L16.7849 2.76895ZM4.43639 3.82348C5.40238 3.88285 6.49643 3.99829 7.30864 4.21262L7.69136 2.76227C6.73055 2.50873 5.51517 2.38695 4.52841 2.3263L4.43639 3.82348ZM7.30864 4.21262C8.27076 4.46651 9.45486 5.02196 10.4317 5.53847L11.1328 4.21244C10.1374 3.68606 8.82766 3.06211 7.69136 2.76227L7.30864 4.21262ZM14.4804 20.7311C15.4714 20.2028 16.6988 19.6205 17.6914 19.3585L17.3086 17.9082C16.1383 18.217 14.7827 18.8701 13.7748 19.4074L14.4804 20.7311ZM17.6914 19.3585C18.4943 19.1466 19.5732 19.0313 20.532 18.9714L20.4383 17.4743C19.4582 17.5356 18.2591 17.6574 17.3086 17.9082L17.6914 19.3585ZM11.2252 19.4074C10.2173 18.8701 8.8617 18.217 7.69136 17.9082L7.30864 19.3585C8.3012 19.6205 9.5286 20.2028 10.5196 20.7311L11.2252 19.4074ZM7.69136 17.9082C6.74092 17.6574 5.54176 17.5356 4.56168 17.4743L4.46804 18.9714C5.4268 19.0313 6.50566 19.1466 7.30864 19.3585L7.69136 17.9082ZM21.75 16.1436C21.75 16.8293 21.1817 17.4278 20.4383 17.4743L20.532 18.9714C22.0062 18.8791 23.25 17.6798 23.25 16.1436H21.75ZM23.25 4.93319C23.25 3.46989 22.0847 2.21495 20.5559 2.2682L20.6081 3.76729C21.2229 3.74588 21.75 4.25161 21.75 4.93319H23.25ZM1.75 16.1436C1.75 17.6798 2.99378 18.8791 4.46804 18.9714L4.56168 17.4743C3.81831 17.4278 3.25 16.8293 3.25 16.1436H1.75ZM13.7748 19.4074C12.9825 19.8297 12.0175 19.8297 11.2252 19.4074L10.5196 20.7311C11.7529 21.3885 13.2471 21.3885 14.4804 20.7311L13.7748 19.4074ZM13.7982 4.15363C12.9801 4.62709 11.9617 4.6507 11.1328 4.21244L10.4317 5.53847C11.7239 6.22177 13.291 6.18025 14.5495 5.45188L13.7982 4.15363ZM3.25 4.9978C3.25 4.30062 3.80243 3.78451 4.43639 3.82348L4.52841 2.3263C2.97017 2.23053 1.75 3.49864 1.75 4.9978H3.25ZM23.25 16.1436V10.5384H21.75V16.1436H23.25ZM23.25 7V4.93319H21.75V7H23.25ZM3.25 10.5707V4.9978H1.75V10.5707H3.25ZM3.25 16.1436V14H1.75V16.1436H3.25Z" fill="white"/>
</svg>