<svg xmlns="http://www.w3.org/2000/svg" width="20" height="20" viewBox="0 0 20 20" fill="none">
  <path d="M16.5835 1.92265C16.4493 1.58133 15.9681 1.58133 15.834 1.92265L15.4753 2.83539C15.4344 2.93959 15.3522 3.02208 15.2483 3.06318L14.339 3.42316C13.9989 3.55777 13.9989 4.04083 14.339 4.17544L15.2483 4.53542C15.3522 4.57652 15.4344 4.65901 15.4753 4.76321L15.834 5.67595C15.9681 6.01727 16.4493 6.01727 16.5835 5.67595L16.9421 4.76321C16.9831 4.65901 17.0652 4.57652 17.1691 4.53542L18.0784 4.17544C18.4185 4.04083 18.4185 3.55777 18.0784 3.42316L17.1691 3.06318C17.0652 3.02208 16.9831 2.93959 16.9421 2.83539L16.5835 1.92265Z" fill="white"/>
  <path d="M13.3607 6.77472C13.2266 6.43339 12.7453 6.43339 12.6112 6.77472L12.4804 7.1075C12.4394 7.21171 12.3573 7.2942 12.2534 7.3353L11.9219 7.46655C11.5818 7.60116 11.5818 8.08422 11.9219 8.21883L12.2534 8.35008C12.3573 8.39118 12.4394 8.47367 12.4804 8.57788L12.6112 8.91067C12.7453 9.25199 13.2266 9.25199 13.3607 8.91067L13.4914 8.57788C13.5324 8.47367 13.6146 8.39118 13.7184 8.35008L14.05 8.21883C14.39 8.08422 14.39 7.60116 14.05 7.46655L13.7184 7.3353C13.6146 7.2942 13.5324 7.21171 13.4914 7.1075L13.3607 6.77472Z" fill="white"/>
  <path opacity="0.5" d="M9.99996 18.3333C14.6023 18.3333 18.3333 14.6024 18.3333 9.99999C18.3333 9.61441 17.7554 9.55069 17.556 9.88069C16.6074 11.4505 14.8846 12.5 12.9166 12.5C9.92508 12.5 7.49996 10.0749 7.49996 7.08332C7.49996 5.11537 8.54944 3.39253 10.1193 2.44396C10.4493 2.24455 10.3855 1.66666 9.99996 1.66666C5.39759 1.66666 1.66663 5.39762 1.66663 9.99999C1.66663 14.6024 5.39759 18.3333 9.99996 18.3333Z" fill="white"/>
</svg>