<svg xmlns="http://www.w3.org/2000/svg" width="40" height="40" viewBox="0 0 40 40" fill="none">
<g opacity="0.5">
<path d="M36.6659 21.3626L35.985 20.6817C34.5206 19.2172 32.1462 19.2172 30.6817 20.6817L29.346 22.0174C28.813 20.5955 27.4414 19.5834 25.8334 19.5834C23.7623 19.5834 22.0834 21.2623 22.0834 23.3334V26.2731C21.2669 26.3639 20.4745 26.7223 19.8484 27.3484C18.3839 28.8128 18.3839 31.1872 19.8484 32.6517L20.5301 33.3334H16.6667C10.3813 33.3334 7.23862 33.3334 5.286 31.3807C3.33337 29.4281 3.33337 26.2854 3.33337 20C3.33337 19.2635 3.33651 17.3201 3.33966 16.6667H36.6667C36.6698 17.3201 36.6667 19.2635 36.6667 20C36.6667 20.4716 36.6667 20.9255 36.6659 21.3626Z" fill="white"/>
</g>
<path d="M8.75 26.6667C8.75 25.9763 9.30964 25.4167 10 25.4167H16.6667C17.357 25.4167 17.9167 25.9763 17.9167 26.6667C17.9167 27.357 17.357 27.9167 16.6667 27.9167H10C9.30964 27.9167 8.75 27.357 8.75 26.6667Z" fill="white"/>
<path d="M16.6581 6.66669H23.342C29.6436 6.66669 32.7944 6.66669 34.752 8.52633C36.1616 9.86528 36.5562 11.7918 36.6667 15V16.6667H3.33337V15C3.44388 11.7918 3.83853 9.86528 5.24806 8.52633C7.20571 6.66669 10.3565 6.66669 16.6581 6.66669Z" fill="white"/>
<path d="M32.4495 22.4494C32.9376 21.9613 33.7291 21.9613 34.2172 22.4494L37.5506 25.7828C38.0387 26.2709 38.0387 27.0624 37.5506 27.5505C37.0624 28.0387 36.2709 28.0387 35.7828 27.5505L34.5833 26.3511V33.3333C34.5833 34.0237 34.0237 34.5833 33.3333 34.5833C32.643 34.5833 32.0833 34.0237 32.0833 33.3333V26.3511L30.8839 27.5505C30.3957 28.0387 29.6043 28.0387 29.1161 27.5505C28.628 27.0624 28.628 26.2709 29.1161 25.7828L32.4495 22.4494Z" fill="white"/>
<path fill-rule="evenodd" clip-rule="evenodd" d="M25.8333 22.0833C26.5237 22.0833 27.0833 22.643 27.0833 23.3333V30.3155L28.2828 29.1161C28.7709 28.6279 29.5624 28.6279 30.0505 29.1161C30.5387 29.6043 30.5387 30.3957 30.0505 30.8839L26.7172 34.2172C26.2291 34.7054 25.4376 34.7054 24.9494 34.2172L21.6161 30.8839C21.128 30.3957 21.128 29.6043 21.6161 29.1161C22.1043 28.6279 22.8957 28.6279 23.3839 29.1161L24.5833 30.3155V23.3333C24.5833 22.643 25.143 22.0833 25.8333 22.0833Z" fill="white"/>
</svg>