<svg xmlns="http://www.w3.org/2000/svg" width="25" height="24" viewBox="0 0 25 24" fill="none">
  <path d="M21.7206 8C21.0311 5.81603 19.9281 4.63486 18.5908 4.16059C18.2099 4.02549 17.8016 4 17.3974 4H16.7849C15.9074 4 15.0514 4.27225 14.3351 4.77922L13.8332 5.13441C13.4434 5.41029 12.9776 5.55844 12.5 5.55844C12.0225 5.55844 11.5567 5.41029 11.1669 5.13443L10.665 4.77922C9.94862 4.27225 9.09264 4 8.21504 4H7.60257C7.19838 4 6.79009 4.02549 6.40915 4.16059C4.02645 5.00566 2.38749 8.09504 2.50604 15.1026C2.52992 16.5145 2.8603 18.075 4.13423 18.6842C4.53121 18.8741 4.99667 19 5.52671 19C6.16273 19 6.6678 18.8187 7.05763 18.5632C7.97153 17.9642 8.64122 16.9639 9.61125 16.4609C10.1952 16.1581 10.8434 16 11.5011 16H13.4989C14.1566 16 14.8048 16.1581 15.3888 16.4609C16.3588 16.9639 17.0285 17.9642 17.9424 18.5632C18.3322 18.8187 18.8373 19 19.4733 19C20.0033 19 20.4688 18.8741 20.8658 18.6842C22.1397 18.075 22.4701 16.5145 22.494 15.1026C22.5132 13.9681 22.4863 12.9362 22.4176 12" stroke="white" stroke-width="1.5" stroke-linecap="round"/>
  <path d="M8 9V12M6.5 10.5L9.5 10.5" stroke="white" stroke-width="1.5" stroke-linecap="round"/>
  <path d="M19.5 10.25C19.5 10.6642 19.1642 11 18.75 11C18.3358 11 18 10.6642 18 10.25C18 9.83579 18.3358 9.5 18.75 9.5C19.1642 9.5 19.5 9.83579 19.5 10.25Z" fill="white"/>
  <path d="M16.5 10.25C16.5 10.6642 16.1642 11 15.75 11C15.3358 11 15 10.6642 15 10.25C15 9.83579 15.3358 9.5 15.75 9.5C16.1642 9.5 16.5 9.83579 16.5 10.25Z" fill="white"/>
  <path d="M17.25 8C17.6642 8 18 8.33579 18 8.75C18 9.16421 17.6642 9.5 17.25 9.5C16.8358 9.5 16.5 9.16421 16.5 8.75C16.5 8.33579 16.8358 8 17.25 8Z" fill="white"/>
  <path d="M17.25 11C17.6642 11 18 11.3358 18 11.75C18 12.1642 17.6642 12.5 17.25 12.5C16.8358 12.5 16.5 12.1642 16.5 11.75C16.5 11.3358 16.8358 11 17.25 11Z" fill="white"/>
</svg>