<svg xmlns="http://www.w3.org/2000/svg" width="24" height="24" viewBox="0 0 24 24" fill="none">
  <path d="M22 12H2" stroke="white" stroke-width="1.5" stroke-linecap="round"/>
  <path d="M12 2V22" stroke="white" stroke-width="1.5" stroke-linecap="round"/>
  <path d="M13 12C13 14.2091 14.7909 16 17 16" stroke="white" stroke-width="1.5" stroke-linecap="round"/>
  <path d="M11 12C11 14.2091 9.20914 16 7 16" stroke="white" stroke-width="1.5" stroke-linecap="round"/>
  <path d="M12 10.0351C12 8.5452 13.014 7.2465 14.4594 6.88515C16.0631 6.48422 17.5158 7.93688 17.1148 9.54061C16.7535 10.986 15.4548 12 13.9649 12H12V10.0351Z" stroke="white" stroke-width="1.5"/>
  <path d="M12 10.0351C12 8.5452 10.986 7.2465 9.54058 6.88515C7.93685 6.48422 6.48419 7.93688 6.88512 9.54061C7.24647 10.986 8.54517 12 10.035 12H12V10.0351Z" stroke="white" stroke-width="1.5"/>
  <path d="M22 12C22 16.714 22 19.0711 20.5355 20.5355C19.0711 22 16.714 22 12 22C7.28595 22 4.92893 22 3.46447 20.5355C2 19.0711 2 16.714 2 12C2 7.28595 2 4.92893 3.46447 3.46447C4.92893 2 7.28595 2 12 2C16.714 2 19.0711 2 20.5355 3.46447C21.5093 4.43821 21.8356 5.80655 21.9449 8" stroke="white" stroke-width="1.5" stroke-linecap="round"/>
</svg>