<svg width="303" height="40" viewBox="0 0 303 40" fill="none" xmlns="http://www.w3.org/2000/svg">
<path d="M25.48 15.72L0.0399995 13.02H25.9C25.7 13.82 25.56 14.72 25.48 15.72ZM27.52 7.26L26.62 9.9L1.72 7.26H27.52ZM25.48 18.78C25.56 19.86 25.72 20.76 25.96 21.48L0.58 18.78H25.48ZM33.88 27.24L2.14 24.54H28C29.32 25.82 31.28 26.72 33.88 27.24ZM32.02 1.5C31.1 2.1 30.22 2.92 29.38 3.96L6.22 1.5H32.02ZM1.12 30.3H23.56L22.66 32.94L1.12 30.3ZM0.0999996 36.12H21.64L20.74 38.76L0.0999996 36.12ZM26.14 28.44C29.5 29.36 32.56 29.82 35.32 29.82C38.12 29.82 40.4 29.7 42.16 29.46L42.64 26.46L37.66 25.98C33.86 25.62 31.16 24.76 29.56 23.4C28 22.04 27.22 20.12 27.22 17.64C27.22 16.56 27.34 15.36 27.58 14.04C28.5 8.92 30.18 5.4 32.62 3.48C35.06 1.56 38.8 0.599997 43.84 0.599997C48.92 0.599997 53.4 1.1 57.28 2.1L54.16 11.7C50.68 11.1 47.88 10.8 45.76 10.8C43.68 10.8 41.88 10.9 40.36 11.1L39.88 14.04L43.9 14.46C47.98 14.9 50.88 15.88 52.6 17.4C54.32 18.88 55.18 20.88 55.18 23.4C55.18 25.96 54.64 28.6 53.56 31.32C52.96 32.72 52.32 33.9 51.64 34.86C51 35.78 50.16 36.58 49.12 37.26C48.12 37.9 47.2 38.4 46.36 38.76C45.52 39.08 44.44 39.32 43.12 39.48C41.28 39.76 39 39.9 36.28 39.9C31.32 39.9 26.82 39.38 22.78 38.34L26.14 28.44ZM97.4111 26.1H88.4711L87.7511 30.18H98.8511L97.2911 39H76.1111L81.6311 7.26H102.751L99.9311 16.26H90.1511L89.4311 20.34H98.4311L97.4111 26.1ZM74.1311 38.82L48.6911 36.12H74.6111L74.1311 38.82ZM76.1711 27.24L50.7311 24.54H76.6511L76.1711 27.24ZM77.1911 21.48L51.7511 18.78H77.6711L77.1911 21.48ZM78.2111 15.72L52.7711 13.02H78.6911L78.2111 15.72ZM79.2311 9.96L53.7911 7.26H79.6511L79.2311 9.96ZM75.1511 33L49.7111 30.3H75.6311L75.1511 33ZM142.246 7.26C148.086 7.26 151.006 9.9 151.006 15.18C151.006 17.58 150.526 20.08 149.566 22.68C148.606 25.24 146.986 27.16 144.706 28.44L148.126 39H136.906L134.626 29.76H133.186L131.566 39H121.486L127.006 7.26H142.246ZM140.026 17.64C140.026 17.6 140.046 17.4 140.086 17.04C140.086 16.36 139.026 16.02 136.906 16.02H135.586L134.626 21.54H136.546C138.386 21.54 139.426 20.94 139.666 19.74L140.026 17.64ZM119.506 38.82L94.0661 36.12H119.986L119.506 38.82ZM121.546 27.24L96.1061 24.54H122.026L121.546 27.24ZM122.566 21.48L97.1261 18.78H123.046L122.566 21.48ZM123.586 15.72L98.1461 13.02H124.066L123.586 15.72ZM124.606 9.96L99.1661 7.26H125.026L124.606 9.96ZM120.526 33L95.0861 30.3H121.006L120.526 33Z" fill="white"/>
<path d="M186.028 7.26V25.38H186.268L193.228 7.26H204.088L191.248 39H176.668L174.928 7.26H186.028ZM149.428 36.12H174.508L174.688 38.82L149.428 36.12ZM149.068 30.3H174.208L174.328 33L149.068 30.3ZM147.688 7.26H172.948L173.128 9.96L147.688 7.26ZM148.048 13.02H173.308L173.428 15.72L148.048 13.02ZM148.408 18.78H173.548L173.728 21.48L148.408 18.78ZM148.768 24.54H173.848L174.028 27.24L148.768 24.54ZM241.505 26.1H232.565L231.845 30.18H242.945L241.385 39H220.205L225.725 7.26H246.845L244.025 16.26H234.245L233.525 20.34H242.525L241.505 26.1ZM218.225 38.82L192.785 36.12H218.705L218.225 38.82ZM220.265 27.24L194.825 24.54H220.745L220.265 27.24ZM221.285 21.48L195.845 18.78H221.765L221.285 21.48ZM222.305 15.72L196.865 13.02H222.785L222.305 15.72ZM223.325 9.96L197.885 7.26H223.745L223.325 9.96ZM219.245 33L193.805 30.3H219.725L219.245 33ZM270.38 21.42L245.72 18.78H271.28L271.46 19.56L270.38 21.42ZM236 36.12H261.92L260.42 38.7L236 36.12ZM270.5 15.72L245.12 13.02H269.84L270.5 15.72ZM267.08 27.12L242.72 24.54H268.58L267.08 27.12ZM269.12 9.96L243.74 7.26H268.46C268.58 7.86 268.8 8.76 269.12 9.96ZM267.74 4.2L242.36 1.5H267.08C267.2 2.1 267.42 3 267.74 4.2ZM263.78 32.88L239.42 30.3H265.28L263.78 32.88ZM281.9 1.5L284 11.52H284.6L290.3 1.5H302.66L291.5 19.62L296.06 39H283.4L281 28.2H280.52L274.4 39H262.34L273.38 19.98L268.94 1.5H281.9Z" fill="#53FC18"/>
</svg>
