<svg width="293" height="23" viewBox="0 0 293 23" fill="none" xmlns="http://www.w3.org/2000/svg">
<path d="M20.88 9.304C20.88 10.584 20.432 11.672 19.536 12.568C18.64 13.464 17.552 13.912 16.272 13.912H5.184V22H0.576V9.304H15.792C15.936 9.304 16.048 9.264 16.128 9.184C16.224 9.088 16.272 8.976 16.272 8.848V6.304C16.272 6 16.112 5.848 15.792 5.848H0.576V1.24H16.272C17.52 1.24 18.6 1.688 19.512 2.584C20.424 3.48 20.88 4.568 20.88 5.848V9.304ZM44.9745 22H40.3665L39.2145 14.392C39.1505 14.072 38.9905 13.912 38.7345 13.912H28.1265V22H23.5185V9.304H38.7345C38.8785 9.304 38.9905 9.264 39.0705 9.184C39.1665 9.088 39.2145 8.976 39.2145 8.848V6.304C39.2145 6 39.0545 5.848 38.7345 5.848H23.5185V1.24H39.2145C40.4625 1.24 41.5425 1.688 42.4545 2.584C43.3665 3.48 43.8225 4.568 43.8225 5.848V9.304C43.8225 9.752 43.7425 10.192 43.5825 10.624C43.4385 11.056 43.2305 11.384 42.9585 11.608C43.2145 11.816 43.4145 12.152 43.5585 12.616C43.6545 12.904 43.7425 13.336 43.8225 13.912L44.9745 22ZM69.3934 11.608C69.3934 14.648 69.0094 17.032 68.2414 18.76C67.2814 20.92 65.7454 22 63.6334 22H54.3934C52.2814 22 50.7454 20.92 49.7854 18.76C49.0174 17.032 48.6334 14.648 48.6334 11.608C48.6334 9.624 48.7694 7.96 49.0414 6.616C49.3774 4.936 49.9374 3.656 50.7214 2.776C51.6334 1.752 52.8574 1.24 54.3934 1.24H63.6334C65.8414 1.24 67.4094 2.32 68.3374 4.48C69.0414 6.128 69.3934 8.504 69.3934 11.608ZM64.6894 11.608C64.6894 9.72 64.5774 8.288 64.3534 7.312C64.1294 6.336 63.7374 5.848 63.1774 5.848H54.8734C54.2494 5.848 53.8334 6.32 53.6254 7.264C53.4334 8.208 53.3374 9.656 53.3374 11.608C53.3374 13.464 53.4574 14.896 53.6974 15.904C53.9374 16.896 54.3294 17.392 54.8734 17.392H63.1774C63.7214 17.392 64.1054 16.888 64.3294 15.88C64.5694 14.872 64.6894 13.448 64.6894 11.608Z" fill="white"/>
<path d="M91.4676 13.912H77.6196V22H73.0116V5.848C73.0116 4.568 73.4596 3.48 74.3556 2.584C75.2516 1.688 76.3396 1.24 77.6196 1.24H91.4676V5.848H78.0756C77.9476 5.848 77.8356 5.896 77.7396 5.992C77.6596 6.072 77.6196 6.176 77.6196 6.304V9.304H91.4676V13.912ZM115.156 22H99.0039C97.7239 22 96.6359 21.552 95.7399 20.656C94.8439 19.76 94.3959 18.672 94.3959 17.392V5.848C94.3959 4.568 94.8439 3.48 95.7399 2.584C96.6359 1.688 97.7239 1.24 99.0039 1.24H115.156V5.848H99.4599C99.3319 5.848 99.2199 5.896 99.1239 5.992C99.0439 6.072 99.0039 6.176 99.0039 6.304V9.304H115.156V13.912H99.0039V16.912C99.0039 17.056 99.0439 17.176 99.1239 17.272C99.2199 17.352 99.3319 17.392 99.4599 17.392H115.156V22ZM139.164 17.392C139.164 18.64 138.716 19.72 137.82 20.632C136.924 21.544 135.836 22 134.556 22H118.404V17.392H134.1C134.404 17.392 134.556 17.232 134.556 16.912V14.392C134.556 14.248 134.508 14.136 134.412 14.056C134.332 13.96 134.228 13.912 134.1 13.912H123.012C121.732 13.912 120.644 13.464 119.748 12.568C118.852 11.672 118.404 10.584 118.404 9.304V5.848C118.404 4.568 118.852 3.48 119.748 2.584C120.644 1.688 121.732 1.24 123.012 1.24H139.164V5.848H123.468C123.34 5.848 123.228 5.896 123.132 5.992C123.052 6.072 123.012 6.176 123.012 6.304V8.848C123.012 8.976 123.052 9.088 123.132 9.184C123.228 9.264 123.34 9.304 123.468 9.304H134.556C135.836 9.304 136.924 9.752 137.82 10.648C138.716 11.544 139.164 12.632 139.164 13.912V17.392ZM163.197 17.392C163.197 18.64 162.749 19.72 161.853 20.632C160.957 21.544 159.869 22 158.589 22H142.437V17.392H158.133C158.437 17.392 158.589 17.232 158.589 16.912V14.392C158.589 14.248 158.541 14.136 158.445 14.056C158.365 13.96 158.261 13.912 158.133 13.912H147.045C145.765 13.912 144.677 13.464 143.781 12.568C142.885 11.672 142.437 10.584 142.437 9.304V5.848C142.437 4.568 142.885 3.48 143.781 2.584C144.677 1.688 145.765 1.24 147.045 1.24H163.197V5.848H147.501C147.373 5.848 147.261 5.896 147.165 5.992C147.085 6.072 147.045 6.176 147.045 6.304V8.848C147.045 8.976 147.085 9.088 147.165 9.184C147.261 9.264 147.373 9.304 147.501 9.304H158.589C159.869 9.304 160.957 9.752 161.853 10.648C162.749 11.544 163.197 12.632 163.197 13.912V17.392ZM172.192 22H167.584V1.24H172.192V22ZM197.957 11.608C197.957 14.648 197.573 17.032 196.805 18.76C195.845 20.92 194.309 22 192.197 22H182.957C180.845 22 179.309 20.92 178.349 18.76C177.581 17.032 177.197 14.648 177.197 11.608C177.197 9.624 177.333 7.96 177.605 6.616C177.941 4.936 178.501 3.656 179.285 2.776C180.197 1.752 181.421 1.24 182.957 1.24H192.197C194.405 1.24 195.973 2.32 196.901 4.48C197.605 6.128 197.957 8.504 197.957 11.608ZM193.253 11.608C193.253 9.72 193.141 8.288 192.917 7.312C192.693 6.336 192.301 5.848 191.741 5.848H183.437C182.813 5.848 182.397 6.32 182.189 7.264C181.997 8.208 181.901 9.656 181.901 11.608C181.901 13.464 182.021 14.896 182.261 15.904C182.501 16.896 182.893 17.392 183.437 17.392H191.741C192.285 17.392 192.669 16.888 192.893 15.88C193.133 14.872 193.253 13.448 193.253 11.608ZM221.306 22.024H216.698V7.288C216.698 6.696 216.346 6.256 215.642 5.968C214.938 5.664 213.746 5.512 212.066 5.512C210.37 5.512 209.178 5.656 208.49 5.944C207.802 6.216 207.458 6.664 207.458 7.288V22.024H202.85V6.808C202.85 4.552 203.738 2.944 205.514 1.984C206.97 1.2 209.154 0.808 212.066 0.808C214.93 0.808 217.122 1.232 218.642 2.08C220.418 3.072 221.306 4.648 221.306 6.808V22.024ZM249.054 22H232.35L234.51 17.392H241.854L237.438 7.96C237.342 7.784 237.206 7.696 237.03 7.696C236.806 7.696 236.662 7.784 236.598 7.96L230.046 22H224.982L233.838 2.992C234.478 1.6 235.542 0.903998 237.03 0.903998C238.502 0.903998 239.558 1.6 240.198 2.992L249.054 22ZM270.222 22H256.374C255.094 22 254.006 21.552 253.11 20.656C252.214 19.76 251.766 18.672 251.766 17.392V1.24H256.374V16.912C256.374 17.056 256.414 17.176 256.494 17.272C256.59 17.352 256.702 17.392 256.83 17.392H270.222V22ZM292.488 17.392C292.488 18.64 292.04 19.72 291.144 20.632C290.248 21.544 289.16 22 287.88 22H271.728V17.392H287.424C287.728 17.392 287.88 17.232 287.88 16.912V14.392C287.88 14.248 287.832 14.136 287.736 14.056C287.656 13.96 287.552 13.912 287.424 13.912H276.336C275.056 13.912 273.968 13.464 273.072 12.568C272.176 11.672 271.728 10.584 271.728 9.304V5.848C271.728 4.568 272.176 3.48 273.072 2.584C273.968 1.688 275.056 1.24 276.336 1.24H292.488V5.848H276.792C276.664 5.848 276.552 5.896 276.456 5.992C276.376 6.072 276.336 6.176 276.336 6.304V8.848C276.336 8.976 276.376 9.088 276.456 9.184C276.552 9.264 276.664 9.304 276.792 9.304H287.88C289.16 9.304 290.248 9.752 291.144 10.648C292.04 11.544 292.488 12.632 292.488 13.912V17.392Z" fill="#53FC18"/>
</svg>
